<svg width="649" height="173" viewBox="0 0 649 173" fill="none" xmlns="http://www.w3.org/2000/svg">
<g clip-path="url(#clip0_2_4)">
<path d="M70.6 138.4C50.3333 138.4 33.6 131.933 20.4 119C7.33333 106.067 0.8 89.5333 0.8 69.4C0.8 49.2667 7.33333 32.7333 20.4 19.8C33.6 6.86666 50.3333 0.399993 70.6 0.399993C90.7333 0.399993 107.333 6.93333 120.4 20C133.6 32.9333 140.2 49.4 140.2 69.4C140.2 87.9333 134.4 103.667 122.8 116.6L132.6 128L112.8 144.2L102 131.8C92.4 136.2 81.9333 138.4 70.6 138.4ZM70.6 113.2C75.4 113.2 80 112.467 84.4 111L69.8 93.8L89.6 77.6L104.2 94.8C108.733 87.6 111 79.1333 111 69.4C111 56.7333 107.267 46.2667 99.8 38C92.4667 29.7333 82.7333 25.6 70.6 25.6C58.3333 25.6 48.4667 29.7333 41 38C33.6667 46.2667 30 56.7333 30 69.4C30 82.0667 33.7333 92.5333 41.2 100.8C48.6667 109.067 58.4667 113.2 70.6 113.2ZM250.53 136H224.93V123.6C217.063 133.467 207.13 138.4 195.13 138.4C182.596 138.4 172.33 133.867 164.33 124.8C156.33 115.733 152.33 103.333 152.33 87.6C152.33 72.1333 156.33 59.8667 164.33 50.8C172.33 41.6 182.596 37 195.13 37C207.263 37 217.196 41.9333 224.93 51.8V39.4H250.53V136ZM203.13 115.8C207.396 115.8 211.53 114.8 215.53 112.8C219.663 110.667 222.796 108 224.93 104.8V70.8C222.796 67.6 219.663 64.9333 215.53 62.8C211.396 60.6667 207.263 59.6 203.13 59.6C195.796 59.6 189.863 62.2 185.33 67.4C180.796 72.6 178.53 79.3333 178.53 87.6C178.53 96 180.796 102.8 185.33 108C189.863 113.2 195.796 115.8 203.13 115.8ZM349.517 136H270.517V117L314.117 61.6H270.517V39.4H348.717V57.6L304.317 113.8H349.517V136ZM401.82 138.4C383.687 138.4 374.62 129.533 374.62 111.8V61.6H358.62V39.4H374.62V13H400.02V39.4H419.62V61.6H400.02V105C400.02 108.2 400.754 110.8 402.22 112.8C403.82 114.8 406.02 115.8 408.82 115.8C412.954 115.8 415.887 114.8 417.62 112.8L423.02 132.2C418.354 136.333 411.287 138.4 401.82 138.4ZM526.598 136H501.198V123.8C492.265 133.533 480.932 138.4 467.198 138.4C456.798 138.4 448.998 135.733 443.798 130.4C438.598 125.067 435.998 117.6 435.998 108V39.4H461.398V98C461.398 109.867 467.332 115.8 479.198 115.8C488.132 115.8 495.465 112.133 501.198 104.8V39.4H526.598V136ZM606.019 138.4C594.019 138.4 584.085 133.467 576.219 123.6V172.8H550.819V39.4H576.219V51.6C583.819 41.8667 593.752 37 606.019 37C618.685 37 628.952 41.5333 636.819 50.6C644.819 59.5333 648.819 71.8667 648.819 87.6C648.819 103.333 644.819 115.733 636.819 124.8C628.952 133.867 618.685 138.4 606.019 138.4ZM598.019 115.8C605.352 115.8 611.285 113.2 615.819 108C620.352 102.8 622.619 96 622.619 87.6C622.619 79.3333 620.352 72.6 615.819 67.4C611.285 62.2 605.352 59.6 598.019 59.6C593.885 59.6 589.752 60.6667 585.619 62.8C581.485 64.8 578.352 67.4 576.219 70.6V104.6C578.352 107.667 581.485 110.333 585.619 112.6C589.885 114.733 594.019 115.8 598.019 115.8Z" fill="#42A2F6"/>
</g>
<defs>
<clipPath id="clip0_2_4">
<rect width="649" height="173" fill="white"/>
</clipPath>
</defs>
</svg>
